<svg width="109" height="45" viewBox="0 0 109 45" fill="none" xmlns="http://www.w3.org/2000/svg">
<rect x="0.00775146" y="7.68616" width="106.251" height="37.0917" rx="7.03058" transform="rotate(-4 0.00775146 7.68616)" fill="#864CF6"/>
<path d="M30.0412 24.2286L23.7489 31.467L16.5102 25.1745C14.8294 23.7134 14.6512 21.1665 16.1121 19.4856C17.5732 17.8045 20.1205 17.6263 21.8015 19.0875L22.9533 20.0888L23.9537 18.9375C25.4148 17.2563 27.9622 17.078 29.6432 18.5393L29.6434 18.5394C31.3243 20.0006 31.5024 22.5477 30.0412 24.2286Z" stroke="white" stroke-width="2.34353"/>
<path d="M47.5993 17.8167L47.7243 19.6043L44.7038 19.8155L45.2848 28.1235L43.1615 28.2719L42.5806 19.964L39.5465 20.1762L39.4215 18.3886L47.5993 17.8167ZM48.1616 21.2324C48.6316 20.5388 49.4944 20.1481 50.7501 20.0603C51.5674 20.0032 52.3047 20.1145 52.9621 20.3943C53.6194 20.6741 53.9795 21.2638 54.0424 22.1633L54.2819 25.5878C54.2985 25.8253 54.3232 26.1126 54.356 26.4499C54.3875 26.7046 54.4385 26.8754 54.5088 26.9623C54.5791 27.0491 54.6803 27.1177 54.8123 27.1682L54.8324 27.4558L52.7092 27.6043C52.6393 27.4578 52.5883 27.3191 52.5562 27.1883C52.5241 27.0575 52.4953 26.908 52.4698 26.7401C52.2208 27.0511 51.9277 27.3217 51.5905 27.5517C51.1874 27.8231 50.7209 27.9773 50.1913 28.0144C49.5155 28.0616 48.9428 27.909 48.473 27.5564C48.0076 27.1989 47.7501 26.6663 47.7006 25.9586C47.6364 25.0408 47.9438 24.3517 48.6228 23.8913C48.9953 23.6404 49.5549 23.4407 50.3016 23.2921L50.9602 23.1635C51.3177 23.0926 51.5717 23.0175 51.7221 22.9381C51.9924 22.7999 52.1187 22.6052 52.1011 22.3541C52.0797 22.0482 51.9578 21.8457 51.7352 21.7465C51.5168 21.6425 51.2022 21.6048 50.7912 21.6336C50.3301 21.6658 50.0116 21.8028 49.8358 22.0445C49.7106 22.223 49.6353 22.4577 49.6097 22.7486L47.7262 22.8803C47.7216 22.2245 47.8668 21.6752 48.1616 21.2324ZM49.9805 26.3773C50.1736 26.5152 50.4026 26.5749 50.6675 26.5564C51.0875 26.527 51.4648 26.3767 51.7991 26.1056C52.138 25.8341 52.2915 25.3714 52.2595 24.7175L52.2088 23.9915C52.0909 24.0778 51.9698 24.1505 51.8455 24.2096C51.7254 24.2639 51.5572 24.3193 51.3409 24.3757L50.9083 24.4885C50.5025 24.5903 50.2142 24.7 50.0434 24.8174C49.7545 25.0166 49.6232 25.3034 49.6494 25.6778C49.6727 26.0111 49.783 26.2443 49.9805 26.3773ZM63.0033 26.8845L60.6472 27.0492L58.6364 23.9825L57.8872 24.8815L58.0514 27.2307L56.1337 27.3648L55.4301 17.3035L57.3479 17.1694L57.7282 22.6076L59.9632 19.6295L62.3809 19.4604L59.9712 22.4989L63.0033 26.8845ZM65.4469 19.2116L65.969 26.6771L63.9896 26.8155L63.4675 19.35L65.4469 19.2116ZM65.2587 16.5199L65.3847 18.3212L63.4053 18.4596L63.2793 16.6583L65.2587 16.5199ZM73.6534 19.443C74.3011 20.0447 74.6686 20.9688 74.7557 22.2153C74.8477 23.5303 74.621 24.5533 74.0756 25.2843C73.5348 26.015 72.7986 26.4129 71.8672 26.478C71.2736 26.5195 70.7701 26.4056 70.3566 26.1363C70.1305 25.9869 69.9037 25.7619 69.6762 25.4612L69.9483 29.3514L68.0168 29.4865L67.2893 19.0827L69.1591 18.952L69.2362 20.0547C69.4236 19.7158 69.6295 19.4445 69.8538 19.2407C70.2643 18.877 70.7686 18.6743 71.3667 18.6324C72.2389 18.5715 73.0011 18.8416 73.6534 19.443ZM72.7488 22.452C72.7086 21.8767 72.5406 21.3768 72.2448 20.9524C71.9535 20.5277 71.5134 20.336 70.9244 20.3771C70.2166 20.4266 69.7538 20.7962 69.5359 21.486C69.4238 21.8517 69.387 22.3085 69.4253 22.8565C69.4859 23.724 69.7591 24.3174 70.2449 24.6368C70.5332 24.8231 70.8646 24.9032 71.239 24.877C71.7824 24.839 72.1809 24.6001 72.4346 24.1602C72.6929 23.72 72.7977 23.1506 72.7488 22.452ZM87.2214 20.7586L82.3175 21.1015L82.499 23.6973L88.0878 23.3065L88.2148 25.1215L80.5643 25.6565L79.8584 15.5609L87.2623 15.0432L87.3873 16.8308L82.045 17.2044L82.1949 19.3481L87.0988 19.0052L87.2214 20.7586ZM93.0215 23.3882L93.1235 24.8471L92.2013 24.946C91.2812 25.0424 90.6399 24.9267 90.2774 24.5987C90.0426 24.3903 89.9089 24.0532 89.8763 23.5875L89.555 18.9918L88.5139 19.0646L88.4167 17.6742L89.4577 17.6014L89.3121 15.5193L91.2436 15.3842L91.3892 17.4664L92.6015 17.3816L92.6987 18.7719L91.4864 18.8567L91.7623 22.8018C91.7837 23.1077 91.8359 23.2968 91.9189 23.369C92.0017 23.4366 92.2416 23.4565 92.6389 23.4287C92.6983 23.4246 92.7599 23.4203 92.8238 23.4158C92.892 23.4065 92.9579 23.3973 93.0215 23.3882Z" fill="white"/>
</svg>
